<svg
  version="1.0"
  id="Layer_1"
  xmlns="http://www.w3.org/2000/svg"
  xmlns:xlink="http://www.w3.org/1999/xlink"
  viewBox="0 0 64 64"
  enable-background="new 0 0 64 64"
  xml:space="preserve"
  fill="#000000"
>
  <g id="SVGRepo_bgCarrier" stroke-width="0"></g>
  <g
    id="SVGRepo_tracerCarrier"
    stroke-linecap="round"
    stroke-linejoin="round"
  ></g>
  <g id="SVGRepo_iconCarrier">
    {" "}
    <g>
      {" "}
      <circle fill="#F76D57" cx="32" cy="32" r="30"></circle>{" "}
      <g>
        {" "}
        <circle fill="#394240" cx="20.5" cy="25.5" r="6.5"></circle>{" "}
        <circle fill="#F9EBB2" cx="20.5" cy="22.5" r="6.5"></circle>{" "}
        <path
          fill="#394240"
          d="M21.394,29.428c0,0-1.316,1.188-2.764,1.188s-2.764-1.188-2.764-1.188C14.186,30.55,13,32.559,13,34.826 v1.673c0,0,3.28,2.501,8,2.501s8-2.501,8-2.501v-1.673C29,32.559,27.814,30.55,21.394,29.428z"
        ></path>{" "}
        <circle fill="#394240" cx="43.5" cy="25.5" r="6.5"></circle>{" "}
        <circle fill="#F9EBB2" cx="43.5" cy="22.5" r="6.5"></circle>{" "}
        <path
          fill="#394240"
          d="M44.394,29.428c0,0-1.316,1.188-2.764,1.188s-2.764-1.188-2.764-1.188C37.186,30.55,36,32.559,36,34.826 v1.673c0,0,3.28,2.501,8,2.501s8-2.501,8-2.501v-1.673C52,32.559,50.814,30.55,44.394,29.428z"
        ></path>{" "}
        <circle fill="#394240" cx="32" cy="38.5" r="6.5"></circle>{" "}
        <circle fill="#F9EBB2" cx="32" cy="35.5" r="6.5"></circle>{" "}
        <path
          fill="#394240"
          d="M32.65,41.5h-1.3c-2.988,0-5.35,2.362-5.35,5.35v1.814c0,0,2.193,1.836,6.65,1.836s6.65-1.836,6.65-1.836 V46.85C38,43.862,35.638,41.5,32.65,41.5z"
        ></path>{" "}
      </g>{" "}
    </g>{" "}
  </g>
</svg>
